<svg xmlns="http://www.w3.org/2000/svg" width="801" height="197" viewBox="0 0 801 197" font-family="-apple-system,BlinkMacSystemFont,Segoe UI,Helvetica,Arial,sans-serif"><rect width="801" height="197" fill="#0d1117"/><text x="2" y="18" fill="#e6edf3" font-size="16">342 contributions in the last year</text><rect x="0.5" y="30.5" width="800" height="166" rx="6" fill="none" stroke="#30363d"/><text x="46" y="57" fill="#7d8590" font-size="12">Sep</text><text x="102" y="57" fill="#7d8590" font-size="12">Oct</text><text x="158" y="57" fill="#7d8590" font-size="12">Nov</text><text x="228" y="57" fill="#7d8590" font-size="12">Dec</text><text x="284" y="57" fill="#7d8590" font-size="12">Jan</text><text x="340" y="57" fill="#7d8590" font-size="12">Feb</text><text x="396" y="57" fill="#7d8590" font-size="12">Mar</text><text x="466" y="57" fill="#7d8590" font-size="12">Apr</text><text x="522" y="57" fill="#7d8590" font-size="12">May</text><text x="592" y="57" fill="#7d8590" font-size="12">Jun</text><text x="648" y="57" fill="#7d8590" font-size="12">Jul</text><text x="704" y="57" fill="#7d8590" font-size="12">Aug</text><text x="774" y="57" fill="#7d8590" font-size="12">Sep</text><text x="38" y="88" fill="#7d8590" font-size="12" text-anchor="end">Mon</text><text x="38" y="116" fill="#7d8590" font-size="12" text-anchor="end">Wed</text><text x="38" y="144" fill="#7d8590" font-size="12" text-anchor="end">Fri</text><rect x="46" y="64" width="11" height="11" rx="2" fill="#161b22" stroke="rgba(255,255,255,0.06)"/><rect x="46" y="78" width="11" height="11" rx="2" fill="#161b22" stroke="rgba(255,255,255,0.06)"/><rect x="46" y="92" width="11" height="11" rx="2" fill="#161b22" stroke="rgba(255,255,255,0.06)"/><rect x="46" y="106" width="11" height="11" rx="2" fill="#161b22" stroke="rgba(255,255,255,0.06)"/><rect x="46" y="120" width="11" height="11" rx="2" fill="#161b22" stroke="rgba(255,255,255,0.06)"/><rect x="46" y="134" width="11" height="11" rx="2" fill="#161b22" stroke="rgba(255,255,255,0.06)"/><rect x="46" y="148" width="11" height="11" rx="2" fill="#161b22" stroke="rgba(255,255,255,0.06)"/><rect x="60" y="64" width="11" height="11" rx="2" fill="#161b22" stroke="rgba(255,255,255,0.06)"/><rect x="60" y="78" width="11" height="11" rx="2" fill="#161b22" stroke="rgba(255,255,255,0.06)"/><rect x="60" y="92" width="11" height="11" rx="2" fill="#161b22" stroke="rgba(255,255,255,0.06)"/><rect x="60" y="106" width="11" height="11" rx="2" fill="#161b22" stroke="rgba(255,255,255,0.06)"/><rect x="60" y="120" width="11" height="11" rx="2" fill="#161b22" stroke="rgba(255,255,255,0.06)"/><rect x="60" y="134" width="11" height="11" rx="2" fill="#161b22" stroke="rgba(255,255,255,0.06)"/><rect x="60" y="148" width="11" height="11" rx="2" fill="#161b22" stroke="rgba(255,255,255,0.06)"/><rect x="74" y="64" width="11" height="11" rx="2" fill="#161b22" stroke="rgba(255,255,255,0.06)"/><rect x="74" y="78" width="11" height="11" rx="2" fill="#161b22" stroke="rgba(255,255,255,0.06)"/><rect x="74" y="92" width="11" height="11" rx="2" fill="#161b22" stroke="rgba(255,255,255,0.06)"/><rect x="74" y="106" width="11" height="11" rx="2" fill="#161b22" stroke="rgba(255,255,255,0.06)"/><rect x="74" y="120" width="11" height="11" rx="2" fill="#161b22" stroke="rgba(255,255,255,0.06)"/><rect x="74" y="134" width="11" height="11" rx="2" fill="#161b22" stroke="rgba(255,255,255,0.06)"/><rect x="74" y="148" width="11" height="11" rx="2" fill="#161b22" stroke="rgba(255,255,255,0.06)"/><rect x="88" y="64" width="11" height="11" rx="2" fill="#161b22" stroke="rgba(255,255,255,0.06)"/><rect x="88" y="78" width="11" height="11" rx="2" fill="#161b22" stroke="rgba(255,255,255,0.06)"/><rect x="88" y="92" width="11" height="11" rx="2" fill="#161b22" stroke="rgba(255,255,255,0.06)"/><rect x="88" y="106" width="11" height="11" rx="2" fill="#161b22" stroke="rgba(255,255,255,0.06)"/><rect x="88" y="120" width="11" height="11" rx="2" fill="#161b22" stroke="rgba(255,255,255,0.06)"/><rect x="88" y="134" width="11" height="11" rx="2" fill="#161b22" stroke="rgba(255,255,255,0.06)"/><rect x="88" y="148" width="11" height="11" rx="2" fill="#161b22" stroke="rgba(255,255,255,0.06)"/><rect x="102" y="64" width="11" height="11" rx="2" fill="#161b22" stroke="rgba(255,255,255,0.06)"/><rect x="102" y="78" width="11" height="11" rx="2" fill="#161b22" stroke="rgba(255,255,255,0.06)"/><rect x="102" y="92" width="11" height="11" rx="2" fill="#161b22" stroke="rgba(255,255,255,0.06)"/><rect x="102" y="106" width="11" height="11" rx="2" fill="#161b22" stroke="rgba(255,255,255,0.06)"/><rect x="102" y="120" width="11" height="11" rx="2" fill="#161b22" stroke="rgba(255,255,255,0.06)"/><rect x="102" y="134" width="11" height="11" rx="2" fill="#161b22" stroke="rgba(255,255,255,0.06)"/><rect x="102" y="148" width="11" height="11" rx="2" fill="#161b22" stroke="rgba(255,255,255,0.06)"/><rect x="116" y="64" width="11" height="11" rx="2" fill="#161b22" stroke="rgba(255,255,255,0.06)"/><rect x="116" y="78" width="11" height="11" rx="2" fill="#161b22" stroke="rgba(255,255,255,0.06)"/><rect x="116" y="92" width="11" height="11" rx="2" fill="#161b22" stroke="rgba(255,255,255,0.06)"/><rect x="116" y="106" width="11" height="11" rx="2" fill="#161b22" stroke="rgba(255,255,255,0.06)"/><rect x="116" y="120" width="11" height="11" rx="2" fill="#161b22" stroke="rgba(255,255,255,0.06)"/><rect x="116" y="134" width="11" height="11" rx="2" fill="#161b22" stroke="rgba(255,255,255,0.06)"/><rect x="116" y="148" width="11" height="11" rx="2" fill="#161b22" stroke="rgba(255,255,255,0.06)"/><rect x="130" y="64" width="11" height="11" rx="2" fill="#161b22" stroke="rgba(255,255,255,0.06)"/><rect x="130" y="78" width="11" height="11" rx="2" fill="#161b22" stroke="rgba(255,255,255,0.06)"/><rect x="130" y="92" width="11" height="11" rx="2" fill="#161b22" stroke="rgba(255,255,255,0.06)"/><rect x="130" y="106" width="11" height="11" rx="2" fill="#161b22" stroke="rgba(255,255,255,0.06)"/><rect x="130" y="120" width="11" height="11" rx="2" fill="#161b22" stroke="rgba(255,255,255,0.06)"/><rect x="130" y="134" width="11" height="11" rx="2" fill="#161b22" stroke="rgba(255,255,255,0.06)"/><rect x="130" y="148" width="11" height="11" rx="2" fill="#161b22" stroke="rgba(255,255,255,0.06)"/><rect x="144" y="64" width="11" height="11" rx="2" fill="#161b22" stroke="rgba(255,255,255,0.06)"/><rect x="144" y="78" width="11" height="11" rx="2" fill="#161b22" stroke="rgba(255,255,255,0.06)"/><rect x="144" y="92" width="11" height="11" rx="2" fill="#161b22" stroke="rgba(255,255,255,0.06)"/><rect x="144" y="106" width="11" height="11" rx="2" fill="#161b22" stroke="rgba(255,255,255,0.06)"/><rect x="144" y="120" width="11" height="11" rx="2" fill="#0e4429" stroke="rgba(255,255,255,0.06)"/><rect x="144" y="134" width="11" height="11" rx="2" fill="#161b22" stroke="rgba(255,255,255,0.06)"/><rect x="144" y="148" width="11" height="11" rx="2" fill="#161b22" stroke="rgba(255,255,255,0.06)"/><rect x="158" y="64" width="11" height="11" rx="2" fill="#161b22" stroke="rgba(255,255,255,0.06)"/><rect x="158" y="78" width="11" height="11" rx="2" fill="#0e4429" stroke="rgba(255,255,255,0.06)"/><rect x="158" y="92" width="11" height="11" rx="2" fill="#161b22" stroke="rgba(255,255,255,0.06)"/><rect x="158" y="106" width="11" height="11" rx="2" fill="#161b22" stroke="rgba(255,255,255,0.06)"/><rect x="158" y="120" width="11" height="11" rx="2" fill="#161b22" stroke="rgba(255,255,255,0.06)"/><rect x="158" y="134" width="11" height="11" rx="2" fill="#161b22" stroke="rgba(255,255,255,0.06)"/><rect x="158" y="148" width="11" height="11" rx="2" fill="#161b22" stroke="rgba(255,255,255,0.06)"/><rect x="172" y="64" width="11" height="11" rx="2" fill="#161b22" stroke="rgba(255,255,255,0.06)"/><rect x="172" y="78" width="11" height="11" rx="2" fill="#006d32" stroke="rgba(255,255,255,0.06)"/><rect x="172" y="92" width="11" height="11" rx="2" fill="#26a641" stroke="rgba(255,255,255,0.06)"/><rect x="172" y="106" width="11" height="11" rx="2" fill="#39d353" stroke="rgba(255,255,255,0.06)"/><rect x="172" y="120" width="11" height="11" rx="2" fill="#161b22" stroke="rgba(255,255,255,0.06)"/><rect x="172" y="134" width="11" height="11" rx="2" fill="#161b22" stroke="rgba(255,255,255,0.06)"/><rect x="172" y="148" width="11" height="11" rx="2" fill="#161b22" stroke="rgba(255,255,255,0.06)"/><rect x="186" y="64" width="11" height="11" rx="2" fill="#161b22" stroke="rgba(255,255,255,0.06)"/><rect x="186" y="78" width="11" height="11" rx="2" fill="#006d32" stroke="rgba(255,255,255,0.06)"/><rect x="186" y="92" width="11" height="11" rx="2" fill="#26a641" stroke="rgba(255,255,255,0.06)"/><rect x="186" y="106" width="11" height="11" rx="2" fill="#161b22" stroke="rgba(255,255,255,0.06)"/><rect x="186" y="120" width="11" height="11" rx="2" fill="#161b22" stroke="rgba(255,255,255,0.06)"/><rect x="186" y="134" width="11" height="11" rx="2" fill="#161b22" stroke="rgba(255,255,255,0.06)"/><rect x="186" y="148" width="11" height="11" rx="2" fill="#161b22" stroke="rgba(255,255,255,0.06)"/><rect x="200" y="64" width="11" height="11" rx="2" fill="#161b22" stroke="rgba(255,255,255,0.06)"/><rect x="200" y="78" width="11" height="11" rx="2" fill="#161b22" stroke="rgba(255,255,255,0.06)"/><rect x="200" y="92" width="11" height="11" rx="2" fill="#161b22" stroke="rgba(255,255,255,0.06)"/><rect x="200" y="106" width="11" height="11" rx="2" fill="#161b22" stroke="rgba(255,255,255,0.06)"/><rect x="200" y="120" width="11" height="11" rx="2" fill="#161b22" stroke="rgba(255,255,255,0.06)"/><rect x="200" y="134" width="11" height="11" rx="2" fill="#161b22" stroke="rgba(255,255,255,0.06)"/><rect x="200" y="148" width="11" height="11" rx="2" fill="#161b22" stroke="rgba(255,255,255,0.06)"/><rect x="214" y="64" width="11" height="11" rx="2" fill="#161b22" stroke="rgba(255,255,255,0.06)"/><rect x="214" y="78" width="11" height="11" rx="2" fill="#006d32" stroke="rgba(255,255,255,0.06)"/><rect x="214" y="92" width="11" height="11" rx="2" fill="#006d32" stroke="rgba(255,255,255,0.06)"/><rect x="214" y="106" width="11" height="11" rx="2" fill="#161b22" stroke="rgba(255,255,255,0.06)"/><rect x="214" y="120" width="11" height="11" rx="2" fill="#26a641" stroke="rgba(255,255,255,0.06)"/><rect x="214" y="134" width="11" height="11" rx="2" fill="#161b22" stroke="rgba(255,255,255,0.06)"/><rect x="214" y="148" width="11" height="11" rx="2" fill="#161b22" stroke="rgba(255,255,255,0.06)"/><rect x="228" y="64" width="11" height="11" rx="2" fill="#161b22" stroke="rgba(255,255,255,0.06)"/><rect x="228" y="78" width="11" height="11" rx="2" fill="#161b22" stroke="rgba(255,255,255,0.06)"/><rect x="228" y="92" width="11" height="11" rx="2" fill="#0e4429" stroke="rgba(255,255,255,0.06)"/><rect x="228" y="106" width="11" height="11" rx="2" fill="#161b22" stroke="rgba(255,255,255,0.06)"/><rect x="228" y="120" width="11" height="11" rx="2" fill="#39d353" stroke="rgba(255,255,255,0.06)"/><rect x="228" y="134" width="11" height="11" rx="2" fill="#161b22" stroke="rgba(255,255,255,0.06)"/><rect x="228" y="148" width="11" height="11" rx="2" fill="#161b22" stroke="rgba(255,255,255,0.06)"/><rect x="242" y="64" width="11" height="11" rx="2" fill="#161b22" stroke="rgba(255,255,255,0.06)"/><rect x="242" y="78" width="11" height="11" rx="2" fill="#161b22" stroke="rgba(255,255,255,0.06)"/><rect x="242" y="92" width="11" height="11" rx="2" fill="#161b22" stroke="rgba(255,255,255,0.06)"/><rect x="242" y="106" width="11" height="11" rx="2" fill="#161b22" stroke="rgba(255,255,255,0.06)"/><rect x="242" y="120" width="11" height="11" rx="2" fill="#161b22" stroke="rgba(255,255,255,0.06)"/><rect x="242" y="134" width="11" height="11" rx="2" fill="#161b22" stroke="rgba(255,255,255,0.06)"/><rect x="242" y="148" width="11" height="11" rx="2" fill="#161b22" stroke="rgba(255,255,255,0.06)"/><rect x="256" y="64" width="11" height="11" rx="2" fill="#161b22" stroke="rgba(255,255,255,0.06)"/><rect x="256" y="78" width="11" height="11" rx="2" fill="#161b22" stroke="rgba(255,255,255,0.06)"/><rect x="256" y="92" width="11" height="11" rx="2" fill="#161b22" stroke="rgba(255,255,255,0.06)"/><rect x="256" y="106" width="11" height="11" rx="2" fill="#161b22" stroke="rgba(255,255,255,0.06)"/><rect x="256" y="120" width="11" height="11" rx="2" fill="#161b22" stroke="rgba(255,255,255,0.06)"/><rect x="256" y="134" width="11" height="11" rx="2" fill="#161b22" stroke="rgba(255,255,255,0.06)"/><rect x="256" y="148" width="11" height="11" rx="2" fill="#161b22" stroke="rgba(255,255,255,0.06)"/><rect x="270" y="64" width="11" height="11" rx="2" fill="#161b22" stroke="rgba(255,255,255,0.06)"/><rect x="270" y="78" width="11" height="11" rx="2" fill="#161b22" stroke="rgba(255,255,255,0.06)"/><rect x="270" y="92" width="11" height="11" rx="2" fill="#161b22" stroke="rgba(255,255,255,0.06)"/><rect x="270" y="106" width="11" height="11" rx="2" fill="#161b22" stroke="rgba(255,255,255,0.06)"/><rect x="270" y="120" width="11" height="11" rx="2" fill="#161b22" stroke="rgba(255,255,255,0.06)"/><rect x="270" y="134" width="11" height="11" rx="2" fill="#161b22" stroke="rgba(255,255,255,0.06)"/><rect x="270" y="148" width="11" height="11" rx="2" fill="#161b22" stroke="rgba(255,255,255,0.06)"/><rect x="284" y="64" width="11" height="11" rx="2" fill="#161b22" stroke="rgba(255,255,255,0.06)"/><rect x="284" y="78" width="11" height="11" rx="2" fill="#161b22" stroke="rgba(255,255,255,0.06)"/><rect x="284" y="92" width="11" height="11" rx="2" fill="#161b22" stroke="rgba(255,255,255,0.06)"/><rect x="284" y="106" width="11" height="11" rx="2" fill="#161b22" stroke="rgba(255,255,255,0.06)"/><rect x="284" y="120" width="11" height="11" rx="2" fill="#161b22" stroke="rgba(255,255,255,0.06)"/><rect x="284" y="134" width="11" height="11" rx="2" fill="#161b22" stroke="rgba(255,255,255,0.06)"/><rect x="284" y="148" width="11" height="11" rx="2" fill="#161b22" stroke="rgba(255,255,255,0.06)"/><rect x="298" y="64" width="11" height="11" rx="2" fill="#161b22" stroke="rgba(255,255,255,0.06)"/><rect x="298" y="78" width="11" height="11" rx="2" fill="#161b22" stroke="rgba(255,255,255,0.06)"/><rect x="298" y="92" width="11" height="11" rx="2" fill="#161b22" stroke="rgba(255,255,255,0.06)"/><rect x="298" y="106" width="11" height="11" rx="2" fill="#161b22" stroke="rgba(255,255,255,0.06)"/><rect x="298" y="120" width="11" height="11" rx="2" fill="#161b22" stroke="rgba(255,255,255,0.06)"/><rect x="298" y="134" width="11" height="11" rx="2" fill="#161b22" stroke="rgba(255,255,255,0.06)"/><rect x="298" y="148" width="11" height="11" rx="2" fill="#161b22" stroke="rgba(255,255,255,0.06)"/><rect x="312" y="64" width="11" height="11" rx="2" fill="#161b22" stroke="rgba(255,255,255,0.06)"/><rect x="312" y="78" width="11" height="11" rx="2" fill="#161b22" stroke="rgba(255,255,255,0.06)"/><rect x="312" y="92" width="11" height="11" rx="2" fill="#161b22" stroke="rgba(255,255,255,0.06)"/><rect x="312" y="106" width="11" height="11" rx="2" fill="#161b22" stroke="rgba(255,255,255,0.06)"/><rect x="312" y="120" width="11" height="11" rx="2" fill="#161b22" stroke="rgba(255,255,255,0.06)"/><rect x="312" y="134" width="11" height="11" rx="2" fill="#161b22" stroke="rgba(255,255,255,0.06)"/><rect x="312" y="148" width="11" height="11" rx="2" fill="#161b22" stroke="rgba(255,255,255,0.06)"/><rect x="326" y="64" width="11" height="11" rx="2" fill="#161b22" stroke="rgba(255,255,255,0.06)"/><rect x="326" y="78" width="11" height="11" rx="2" fill="#161b22" stroke="rgba(255,255,255,0.06)"/><rect x="326" y="92" width="11" height="11" rx="2" fill="#161b22" stroke="rgba(255,255,255,0.06)"/><rect x="326" y="106" width="11" height="11" rx="2" fill="#161b22" stroke="rgba(255,255,255,0.06)"/><rect x="326" y="120" width="11" height="11" rx="2" fill="#161b22" stroke="rgba(255,255,255,0.06)"/><rect x="326" y="134" width="11" height="11" rx="2" fill="#161b22" stroke="rgba(255,255,255,0.06)"/><rect x="326" y="148" width="11" height="11" rx="2" fill="#161b22" stroke="rgba(255,255,255,0.06)"/><rect x="340" y="64" width="11" height="11" rx="2" fill="#161b22" stroke="rgba(255,255,255,0.06)"/><rect x="340" y="78" width="11" height="11" rx="2" fill="#26a641" stroke="rgba(255,255,255,0.06)"/><rect x="340" y="92" width="11" height="11" rx="2" fill="#161b22" stroke="rgba(255,255,255,0.06)"/><rect x="340" y="106" width="11" height="11" rx="2" fill="#161b22" stroke="rgba(255,255,255,0.06)"/><rect x="340" y="120" width="11" height="11" rx="2" fill="#161b22" stroke="rgba(255,255,255,0.06)"/><rect x="340" y="134" width="11" height="11" rx="2" fill="#161b22" stroke="rgba(255,255,255,0.06)"/><rect x="340" y="148" width="11" height="11" rx="2" fill="#161b22" stroke="rgba(255,255,255,0.06)"/><rect x="354" y="64" width="11" height="11" rx="2" fill="#161b22" stroke="rgba(255,255,255,0.06)"/><rect x="354" y="78" width="11" height="11" rx="2" fill="#006d32" stroke="rgba(255,255,255,0.06)"/><rect x="354" y="92" width="11" height="11" rx="2" fill="#0e4429" stroke="rgba(255,255,255,0.06)"/><rect x="354" y="106" width="11" height="11" rx="2" fill="#161b22" stroke="rgba(255,255,255,0.06)"/><rect x="354" y="120" width="11" height="11" rx="2" fill="#161b22" stroke="rgba(255,255,255,0.06)"/><rect x="354" y="134" width="11" height="11" rx="2" fill="#161b22" stroke="rgba(255,255,255,0.06)"/><rect x="354" y="148" width="11" height="11" rx="2" fill="#161b22" stroke="rgba(255,255,255,0.06)"/><rect x="368" y="64" width="11" height="11" rx="2" fill="#161b22" stroke="rgba(255,255,255,0.06)"/><rect x="368" y="78" width="11" height="11" rx="2" fill="#161b22" stroke="rgba(255,255,255,0.06)"/><rect x="368" y="92" width="11" height="11" rx="2" fill="#161b22" stroke="rgba(255,255,255,0.06)"/><rect x="368" y="106" width="11" height="11" rx="2" fill="#161b22" stroke="rgba(255,255,255,0.06)"/><rect x="368" y="120" width="11" height="11" rx="2" fill="#161b22" stroke="rgba(255,255,255,0.06)"/><rect x="368" y="134" width="11" height="11" rx="2" fill="#161b22" stroke="rgba(255,255,255,0.06)"/><rect x="368" y="148" width="11" height="11" rx="2" fill="#161b22" stroke="rgba(255,255,255,0.06)"/><rect x="382" y="64" width="11" height="11" rx="2" fill="#161b22" stroke="rgba(255,255,255,0.06)"/><rect x="382" y="78" width="11" height="11" rx="2" fill="#161b22" stroke="rgba(255,255,255,0.06)"/><rect x="382" y="92" width="11" height="11" rx="2" fill="#161b22" stroke="rgba(255,255,255,0.06)"/><rect x="382" y="106" width="11" height="11" rx="2" fill="#0e4429" stroke="rgba(255,255,255,0.06)"/><rect x="382" y="120" width="11" height="11" rx="2" fill="#0e4429" stroke="rgba(255,255,255,0.06)"/><rect x="382" y="134" width="11" height="11" rx="2" fill="#161b22" stroke="rgba(255,255,255,0.06)"/><rect x="382" y="148" width="11" height="11" rx="2" fill="#161b22" stroke="rgba(255,255,255,0.06)"/><rect x="396" y="64" width="11" height="11" rx="2" fill="#161b22" stroke="rgba(255,255,255,0.06)"/><rect x="396" y="78" width="11" height="11" rx="2" fill="#006d32" stroke="rgba(255,255,255,0.06)"/><rect x="396" y="92" width="11" height="11" rx="2" fill="#006d32" stroke="rgba(255,255,255,0.06)"/><rect x="396" y="106" width="11" height="11" rx="2" fill="#161b22" stroke="rgba(255,255,255,0.06)"/><rect x="396" y="120" width="11" height="11" rx="2" fill="#161b22" stroke="rgba(255,255,255,0.06)"/><rect x="396" y="134" width="11" height="11" rx="2" fill="#161b22" stroke="rgba(255,255,255,0.06)"/><rect x="396" y="148" width="11" height="11" rx="2" fill="#161b22" stroke="rgba(255,255,255,0.06)"/><rect x="410" y="64" width="11" height="11" rx="2" fill="#161b22" stroke="rgba(255,255,255,0.06)"/><rect x="410" y="78" width="11" height="11" rx="2" fill="#161b22" stroke="rgba(255,255,255,0.06)"/><rect x="410" y="92" width="11" height="11" rx="2" fill="#161b22" stroke="rgba(255,255,255,0.06)"/><rect x="410" y="106" width="11" height="11" rx="2" fill="#161b22" stroke="rgba(255,255,255,0.06)"/><rect x="410" y="120" width="11" height="11" rx="2" fill="#0e4429" stroke="rgba(255,255,255,0.06)"/><rect x="410" y="134" width="11" height="11" rx="2" fill="#161b22" stroke="rgba(255,255,255,0.06)"/><rect x="410" y="148" width="11" height="11" rx="2" fill="#39d353" stroke="rgba(255,255,255,0.06)"/><rect x="424" y="64" width="11" height="11" rx="2" fill="#161b22" stroke="rgba(255,255,255,0.06)"/><rect x="424" y="78" width="11" height="11" rx="2" fill="#161b22" stroke="rgba(255,255,255,0.06)"/><rect x="424" y="92" width="11" height="11" rx="2" fill="#161b22" stroke="rgba(255,255,255,0.06)"/><rect x="424" y="106" width="11" height="11" rx="2" fill="#26a641" stroke="rgba(255,255,255,0.06)"/><rect x="424" y="120" width="11" height="11" rx="2" fill="#161b22" stroke="rgba(255,255,255,0.06)"/><rect x="424" y="134" width="11" height="11" rx="2" fill="#161b22" stroke="rgba(255,255,255,0.06)"/><rect x="424" y="148" width="11" height="11" rx="2" fill="#161b22" stroke="rgba(255,255,255,0.06)"/><rect x="438" y="64" width="11" height="11" rx="2" fill="#161b22" stroke="rgba(255,255,255,0.06)"/><rect x="438" y="78" width="11" height="11" rx="2" fill="#0e4429" stroke="rgba(255,255,255,0.06)"/><rect x="438" y="92" width="11" height="11" rx="2" fill="#0e4429" stroke="rgba(255,255,255,0.06)"/><rect x="438" y="106" width="11" height="11" rx="2" fill="#006d32" stroke="rgba(255,255,255,0.06)"/><rect x="438" y="120" width="11" height="11" rx="2" fill="#0e4429" stroke="rgba(255,255,255,0.06)"/><rect x="438" y="134" width="11" height="11" rx="2" fill="#161b22" stroke="rgba(255,255,255,0.06)"/><rect x="438" y="148" width="11" height="11" rx="2" fill="#161b22" stroke="rgba(255,255,255,0.06)"/><rect x="452" y="64" width="11" height="11" rx="2" fill="#161b22" stroke="rgba(255,255,255,0.06)"/><rect x="452" y="78" width="11" height="11" rx="2" fill="#161b22" stroke="rgba(255,255,255,0.06)"/><rect x="452" y="92" width="11" height="11" rx="2" fill="#161b22" stroke="rgba(255,255,255,0.06)"/><rect x="452" y="106" width="11" height="11" rx="2" fill="#161b22" stroke="rgba(255,255,255,0.06)"/><rect x="452" y="120" width="11" height="11" rx="2" fill="#161b22" stroke="rgba(255,255,255,0.06)"/><rect x="452" y="134" width="11" height="11" rx="2" fill="#161b22" stroke="rgba(255,255,255,0.06)"/><rect x="452" y="148" width="11" height="11" rx="2" fill="#161b22" stroke="rgba(255,255,255,0.06)"/><rect x="466" y="64" width="11" height="11" rx="2" fill="#161b22" stroke="rgba(255,255,255,0.06)"/><rect x="466" y="78" width="11" height="11" rx="2" fill="#161b22" stroke="rgba(255,255,255,0.06)"/><rect x="466" y="92" width="11" height="11" rx="2" fill="#161b22" stroke="rgba(255,255,255,0.06)"/><rect x="466" y="106" width="11" height="11" rx="2" fill="#161b22" stroke="rgba(255,255,255,0.06)"/><rect x="466" y="120" width="11" height="11" rx="2" fill="#006d32" stroke="rgba(255,255,255,0.06)"/><rect x="466" y="134" width="11" height="11" rx="2" fill="#006d32" stroke="rgba(255,255,255,0.06)"/><rect x="466" y="148" width="11" height="11" rx="2" fill="#161b22" stroke="rgba(255,255,255,0.06)"/><rect x="480" y="64" width="11" height="11" rx="2" fill="#161b22" stroke="rgba(255,255,255,0.06)"/><rect x="480" y="78" width="11" height="11" rx="2" fill="#161b22" stroke="rgba(255,255,255,0.06)"/><rect x="480" y="92" width="11" height="11" rx="2" fill="#161b22" stroke="rgba(255,255,255,0.06)"/><rect x="480" y="106" width="11" height="11" rx="2" fill="#161b22" stroke="rgba(255,255,255,0.06)"/><rect x="480" y="120" width="11" height="11" rx="2" fill="#006d32" stroke="rgba(255,255,255,0.06)"/><rect x="480" y="134" width="11" height="11" rx="2" fill="#161b22" stroke="rgba(255,255,255,0.06)"/><rect x="480" y="148" width="11" height="11" rx="2" fill="#161b22" stroke="rgba(255,255,255,0.06)"/><rect x="494" y="64" width="11" height="11" rx="2" fill="#161b22" stroke="rgba(255,255,255,0.06)"/><rect x="494" y="78" width="11" height="11" rx="2" fill="#161b22" stroke="rgba(255,255,255,0.06)"/><rect x="494" y="92" width="11" height="11" rx="2" fill="#161b22" stroke="rgba(255,255,255,0.06)"/><rect x="494" y="106" width="11" height="11" rx="2" fill="#161b22" stroke="rgba(255,255,255,0.06)"/><rect x="494" y="120" width="11" height="11" rx="2" fill="#006d32" stroke="rgba(255,255,255,0.06)"/><rect x="494" y="134" width="11" height="11" rx="2" fill="#161b22" stroke="rgba(255,255,255,0.06)"/><rect x="494" y="148" width="11" height="11" rx="2" fill="#161b22" stroke="rgba(255,255,255,0.06)"/><rect x="508" y="64" width="11" height="11" rx="2" fill="#161b22" stroke="rgba(255,255,255,0.06)"/><rect x="508" y="78" width="11" height="11" rx="2" fill="#161b22" stroke="rgba(255,255,255,0.06)"/><rect x="508" y="92" width="11" height="11" rx="2" fill="#006d32" stroke="rgba(255,255,255,0.06)"/><rect x="508" y="106" width="11" height="11" rx="2" fill="#161b22" stroke="rgba(255,255,255,0.06)"/><rect x="508" y="120" width="11" height="11" rx="2" fill="#161b22" stroke="rgba(255,255,255,0.06)"/><rect x="508" y="134" width="11" height="11" rx="2" fill="#161b22" stroke="rgba(255,255,255,0.06)"/><rect x="508" y="148" width="11" height="11" rx="2" fill="#161b22" stroke="rgba(255,255,255,0.06)"/><rect x="522" y="64" width="11" height="11" rx="2" fill="#161b22" stroke="rgba(255,255,255,0.06)"/><rect x="522" y="78" width="11" height="11" rx="2" fill="#161b22" stroke="rgba(255,255,255,0.06)"/><rect x="522" y="92" width="11" height="11" rx="2" fill="#161b22" stroke="rgba(255,255,255,0.06)"/><rect x="522" y="106" width="11" height="11" rx="2" fill="#161b22" stroke="rgba(255,255,255,0.06)"/><rect x="522" y="120" width="11" height="11" rx="2" fill="#0e4429" stroke="rgba(255,255,255,0.06)"/><rect x="522" y="134" width="11" height="11" rx="2" fill="#161b22" stroke="rgba(255,255,255,0.06)"/><rect x="522" y="148" width="11" height="11" rx="2" fill="#161b22" stroke="rgba(255,255,255,0.06)"/><rect x="536" y="64" width="11" height="11" rx="2" fill="#161b22" stroke="rgba(255,255,255,0.06)"/><rect x="536" y="78" width="11" height="11" rx="2" fill="#161b22" stroke="rgba(255,255,255,0.06)"/><rect x="536" y="92" width="11" height="11" rx="2" fill="#161b22" stroke="rgba(255,255,255,0.06)"/><rect x="536" y="106" width="11" height="11" rx="2" fill="#161b22" stroke="rgba(255,255,255,0.06)"/><rect x="536" y="120" width="11" height="11" rx="2" fill="#161b22" stroke="rgba(255,255,255,0.06)"/><rect x="536" y="134" width="11" height="11" rx="2" fill="#161b22" stroke="rgba(255,255,255,0.06)"/><rect x="536" y="148" width="11" height="11" rx="2" fill="#161b22" stroke="rgba(255,255,255,0.06)"/><rect x="550" y="64" width="11" height="11" rx="2" fill="#161b22" stroke="rgba(255,255,255,0.06)"/><rect x="550" y="78" width="11" height="11" rx="2" fill="#161b22" stroke="rgba(255,255,255,0.06)"/><rect x="550" y="92" width="11" height="11" rx="2" fill="#161b22" stroke="rgba(255,255,255,0.06)"/><rect x="550" y="106" width="11" height="11" rx="2" fill="#161b22" stroke="rgba(255,255,255,0.06)"/><rect x="550" y="120" width="11" height="11" rx="2" fill="#161b22" stroke="rgba(255,255,255,0.06)"/><rect x="550" y="134" width="11" height="11" rx="2" fill="#161b22" stroke="rgba(255,255,255,0.06)"/><rect x="550" y="148" width="11" height="11" rx="2" fill="#161b22" stroke="rgba(255,255,255,0.06)"/><rect x="564" y="64" width="11" height="11" rx="2" fill="#161b22" stroke="rgba(255,255,255,0.06)"/><rect x="564" y="78" width="11" height="11" rx="2" fill="#161b22" stroke="rgba(255,255,255,0.06)"/><rect x="564" y="92" width="11" height="11" rx="2" fill="#161b22" stroke="rgba(255,255,255,0.06)"/><rect x="564" y="106" width="11" height="11" rx="2" fill="#006d32" stroke="rgba(255,255,255,0.06)"/><rect x="564" y="120" width="11" height="11" rx="2" fill="#006d32" stroke="rgba(255,255,255,0.06)"/><rect x="564" y="134" width="11" height="11" rx="2" fill="#006d32" stroke="rgba(255,255,255,0.06)"/><rect x="564" y="148" width="11" height="11" rx="2" fill="#161b22" stroke="rgba(255,255,255,0.06)"/><rect x="578" y="64" width="11" height="11" rx="2" fill="#161b22" stroke="rgba(255,255,255,0.06)"/><rect x="578" y="78" width="11" height="11" rx="2" fill="#161b22" stroke="rgba(255,255,255,0.06)"/><rect x="578" y="92" width="11" height="11" rx="2" fill="#161b22" stroke="rgba(255,255,255,0.06)"/><rect x="578" y="106" width="11" height="11" rx="2" fill="#161b22" stroke="rgba(255,255,255,0.06)"/><rect x="578" y="120" width="11" height="11" rx="2" fill="#161b22" stroke="rgba(255,255,255,0.06)"/><rect x="578" y="134" width="11" height="11" rx="2" fill="#161b22" stroke="rgba(255,255,255,0.06)"/><rect x="578" y="148" width="11" height="11" rx="2" fill="#161b22" stroke="rgba(255,255,255,0.06)"/><rect x="592" y="64" width="11" height="11" rx="2" fill="#161b22" stroke="rgba(255,255,255,0.06)"/><rect x="592" y="78" width="11" height="11" rx="2" fill="#161b22" stroke="rgba(255,255,255,0.06)"/><rect x="592" y="92" width="11" height="11" rx="2" fill="#161b22" stroke="rgba(255,255,255,0.06)"/><rect x="592" y="106" width="11" height="11" rx="2" fill="#161b22" stroke="rgba(255,255,255,0.06)"/><rect x="592" y="120" width="11" height="11" rx="2" fill="#161b22" stroke="rgba(255,255,255,0.06)"/><rect x="592" y="134" width="11" height="11" rx="2" fill="#161b22" stroke="rgba(255,255,255,0.06)"/><rect x="592" y="148" width="11" height="11" rx="2" fill="#161b22" stroke="rgba(255,255,255,0.06)"/><rect x="606" y="64" width="11" height="11" rx="2" fill="#161b22" stroke="rgba(255,255,255,0.06)"/><rect x="606" y="78" width="11" height="11" rx="2" fill="#161b22" stroke="rgba(255,255,255,0.06)"/><rect x="606" y="92" width="11" height="11" rx="2" fill="#161b22" stroke="rgba(255,255,255,0.06)"/><rect x="606" y="106" width="11" height="11" rx="2" fill="#161b22" stroke="rgba(255,255,255,0.06)"/><rect x="606" y="120" width="11" height="11" rx="2" fill="#161b22" stroke="rgba(255,255,255,0.06)"/><rect x="606" y="134" width="11" height="11" rx="2" fill="#161b22" stroke="rgba(255,255,255,0.06)"/><rect x="606" y="148" width="11" height="11" rx="2" fill="#161b22" stroke="rgba(255,255,255,0.06)"/><rect x="620" y="64" width="11" height="11" rx="2" fill="#161b22" stroke="rgba(255,255,255,0.06)"/><rect x="620" y="78" width="11" height="11" rx="2" fill="#161b22" stroke="rgba(255,255,255,0.06)"/><rect x="620" y="92" width="11" height="11" rx="2" fill="#161b22" stroke="rgba(255,255,255,0.06)"/><rect x="620" y="106" width="11" height="11" rx="2" fill="#161b22" stroke="rgba(255,255,255,0.06)"/><rect x="620" y="120" width="11" height="11" rx="2" fill="#006d32" stroke="rgba(255,255,255,0.06)"/><rect x="620" y="134" width="11" height="11" rx="2" fill="#161b22" stroke="rgba(255,255,255,0.06)"/><rect x="620" y="148" width="11" height="11" rx="2" fill="#0e4429" stroke="rgba(255,255,255,0.06)"/><rect x="634" y="64" width="11" height="11" rx="2" fill="#161b22" stroke="rgba(255,255,255,0.06)"/><rect x="634" y="78" width="11" height="11" rx="2" fill="#161b22" stroke="rgba(255,255,255,0.06)"/><rect x="634" y="92" width="11" height="11" rx="2" fill="#0e4429" stroke="rgba(255,255,255,0.06)"/><rect x="634" y="106" width="11" height="11" rx="2" fill="#39d353" stroke="rgba(255,255,255,0.06)"/><rect x="634" y="120" width="11" height="11" rx="2" fill="#0e4429" stroke="rgba(255,255,255,0.06)"/><rect x="634" y="134" width="11" height="11" rx="2" fill="#161b22" stroke="rgba(255,255,255,0.06)"/><rect x="634" y="148" width="11" height="11" rx="2" fill="#161b22" stroke="rgba(255,255,255,0.06)"/><rect x="648" y="64" width="11" height="11" rx="2" fill="#161b22" stroke="rgba(255,255,255,0.06)"/><rect x="648" y="78" width="11" height="11" rx="2" fill="#39d353" stroke="rgba(255,255,255,0.06)"/><rect x="648" y="92" width="11" height="11" rx="2" fill="#006d32" stroke="rgba(255,255,255,0.06)"/><rect x="648" y="106" width="11" height="11" rx="2" fill="#0e4429" stroke="rgba(255,255,255,0.06)"/><rect x="648" y="120" width="11" height="11" rx="2" fill="#0e4429" stroke="rgba(255,255,255,0.06)"/><rect x="648" y="134" width="11" height="11" rx="2" fill="#0e4429" stroke="rgba(255,255,255,0.06)"/><rect x="648" y="148" width="11" height="11" rx="2" fill="#161b22" stroke="rgba(255,255,255,0.06)"/><rect x="662" y="64" width="11" height="11" rx="2" fill="#161b22" stroke="rgba(255,255,255,0.06)"/><rect x="662" y="78" width="11" height="11" rx="2" fill="#26a641" stroke="rgba(255,255,255,0.06)"/><rect x="662" y="92" width="11" height="11" rx="2" fill="#26a641" stroke="rgba(255,255,255,0.06)"/><rect x="662" y="106" width="11" height="11" rx="2" fill="#006d32" stroke="rgba(255,255,255,0.06)"/><rect x="662" y="120" width="11" height="11" rx="2" fill="#0e4429" stroke="rgba(255,255,255,0.06)"/><rect x="662" y="134" width="11" height="11" rx="2" fill="#26a641" stroke="rgba(255,255,255,0.06)"/><rect x="662" y="148" width="11" height="11" rx="2" fill="#161b22" stroke="rgba(255,255,255,0.06)"/><rect x="676" y="64" width="11" height="11" rx="2" fill="#161b22" stroke="rgba(255,255,255,0.06)"/><rect x="676" y="78" width="11" height="11" rx="2" fill="#006d32" stroke="rgba(255,255,255,0.06)"/><rect x="676" y="92" width="11" height="11" rx="2" fill="#26a641" stroke="rgba(255,255,255,0.06)"/><rect x="676" y="106" width="11" height="11" rx="2" fill="#161b22" stroke="rgba(255,255,255,0.06)"/><rect x="676" y="120" width="11" height="11" rx="2" fill="#161b22" stroke="rgba(255,255,255,0.06)"/><rect x="676" y="134" width="11" height="11" rx="2" fill="#161b22" stroke="rgba(255,255,255,0.06)"/><rect x="676" y="148" width="11" height="11" rx="2" fill="#161b22" stroke="rgba(255,255,255,0.06)"/><rect x="690" y="64" width="11" height="11" rx="2" fill="#161b22" stroke="rgba(255,255,255,0.06)"/><rect x="690" y="78" width="11" height="11" rx="2" fill="#0e4429" stroke="rgba(255,255,255,0.06)"/><rect x="690" y="92" width="11" height="11" rx="2" fill="#39d353" stroke="rgba(255,255,255,0.06)"/><rect x="690" y="106" width="11" height="11" rx="2" fill="#39d353" stroke="rgba(255,255,255,0.06)"/><rect x="690" y="120" width="11" height="11" rx="2" fill="#39d353" stroke="rgba(255,255,255,0.06)"/><rect x="690" y="134" width="11" height="11" rx="2" fill="#161b22" stroke="rgba(255,255,255,0.06)"/><rect x="690" y="148" width="11" height="11" rx="2" fill="#161b22" stroke="rgba(255,255,255,0.06)"/><rect x="704" y="64" width="11" height="11" rx="2" fill="#161b22" stroke="rgba(255,255,255,0.06)"/><rect x="704" y="78" width="11" height="11" rx="2" fill="#161b22" stroke="rgba(255,255,255,0.06)"/><rect x="704" y="92" width="11" height="11" rx="2" fill="#161b22" stroke="rgba(255,255,255,0.06)"/><rect x="704" y="106" width="11" height="11" rx="2" fill="#26a641" stroke="rgba(255,255,255,0.06)"/><rect x="704" y="120" width="11" height="11" rx="2" fill="#161b22" stroke="rgba(255,255,255,0.06)"/><rect x="704" y="134" width="11" height="11" rx="2" fill="#161b22" stroke="rgba(255,255,255,0.06)"/><rect x="704" y="148" width="11" height="11" rx="2" fill="#161b22" stroke="rgba(255,255,255,0.06)"/><rect x="718" y="64" width="11" height="11" rx="2" fill="#161b22" stroke="rgba(255,255,255,0.06)"/><rect x="718" y="78" width="11" height="11" rx="2" fill="#161b22" stroke="rgba(255,255,255,0.06)"/><rect x="718" y="92" width="11" height="11" rx="2" fill="#161b22" stroke="rgba(255,255,255,0.06)"/><rect x="718" y="106" width="11" height="11" rx="2" fill="#161b22" stroke="rgba(255,255,255,0.06)"/><rect x="718" y="120" width="11" height="11" rx="2" fill="#161b22" stroke="rgba(255,255,255,0.06)"/><rect x="718" y="134" width="11" height="11" rx="2" fill="#26a641" stroke="rgba(255,255,255,0.06)"/><rect x="718" y="148" width="11" height="11" rx="2" fill="#161b22" stroke="rgba(255,255,255,0.06)"/><rect x="732" y="64" width="11" height="11" rx="2" fill="#161b22" stroke="rgba(255,255,255,0.06)"/><rect x="732" y="78" width="11" height="11" rx="2" fill="#39d353" stroke="rgba(255,255,255,0.06)"/><rect x="732" y="92" width="11" height="11" rx="2" fill="#26a641" stroke="rgba(255,255,255,0.06)"/><rect x="732" y="106" width="11" height="11" rx="2" fill="#006d32" stroke="rgba(255,255,255,0.06)"/><rect x="732" y="120" width="11" height="11" rx="2" fill="#161b22" stroke="rgba(255,255,255,0.06)"/><rect x="732" y="134" width="11" height="11" rx="2" fill="#0e4429" stroke="rgba(255,255,255,0.06)"/><rect x="732" y="148" width="11" height="11" rx="2" fill="#161b22" stroke="rgba(255,255,255,0.06)"/><rect x="746" y="64" width="11" height="11" rx="2" fill="#161b22" stroke="rgba(255,255,255,0.06)"/><rect x="746" y="78" width="11" height="11" rx="2" fill="#006d32" stroke="rgba(255,255,255,0.06)"/><rect x="746" y="92" width="11" height="11" rx="2" fill="#0e4429" stroke="rgba(255,255,255,0.06)"/><rect x="746" y="106" width="11" height="11" rx="2" fill="#161b22" stroke="rgba(255,255,255,0.06)"/><rect x="746" y="120" width="11" height="11" rx="2" fill="#161b22" stroke="rgba(255,255,255,0.06)"/><rect x="746" y="134" width="11" height="11" rx="2" fill="#39d353" stroke="rgba(255,255,255,0.06)"/><rect x="746" y="148" width="11" height="11" rx="2" fill="#161b22" stroke="rgba(255,255,255,0.06)"/><rect x="760" y="64" width="11" height="11" rx="2" fill="#161b22" stroke="rgba(255,255,255,0.06)"/><rect x="760" y="78" width="11" height="11" rx="2" fill="#26a641" stroke="rgba(255,255,255,0.06)"/><rect x="760" y="92" width="11" height="11" rx="2" fill="#006d32" stroke="rgba(255,255,255,0.06)"/><rect x="760" y="106" width="11" height="11" rx="2" fill="#39d353" stroke="rgba(255,255,255,0.06)"/><rect x="760" y="120" width="11" height="11" rx="2" fill="#006d32" stroke="rgba(255,255,255,0.06)"/><rect x="760" y="134" width="11" height="11" rx="2" fill="#006d32" stroke="rgba(255,255,255,0.06)"/><rect x="760" y="148" width="11" height="11" rx="2" fill="#161b22" stroke="rgba(255,255,255,0.06)"/><rect x="774" y="64" width="11" height="11" rx="2" fill="#161b22" stroke="rgba(255,255,255,0.06)"/><rect x="774" y="78" width="11" height="11" rx="2" fill="#161b22" stroke="rgba(255,255,255,0.06)"/><rect x="774" y="92" width="11" height="11" rx="2" fill="#39d353" stroke="rgba(255,255,255,0.06)"/><text x="16" y="185" fill="#7d8590" font-size="12">Learn how we count contributions</text><text x="649" y="185" fill="#7d8590" font-size="12">Less</text><rect x="679" y="175" width="11" height="11" rx="2" fill="#161b22" stroke="rgba(255,255,255,0.06)"/><rect x="693" y="175" width="11" height="11" rx="2" fill="#0e4429" stroke="rgba(255,255,255,0.06)"/><rect x="707" y="175" width="11" height="11" rx="2" fill="#006d32" stroke="rgba(255,255,255,0.06)"/><rect x="721" y="175" width="11" height="11" rx="2" fill="#26a641" stroke="rgba(255,255,255,0.06)"/><rect x="735" y="175" width="11" height="11" rx="2" fill="#39d353" stroke="rgba(255,255,255,0.06)"/><text x="749" y="185" fill="#7d8590" font-size="12">More</text></svg>
